<svg fill="none" height="220" viewBox="0 0 220 220" width="220" xmlns="http://www.w3.org/2000/svg"><path d="m75.0726 71.501h-42.6808v7.5974h42.6808z" fill="#d2d2d2"/><path d="m78.9563 78.1763h-50.4481c-2.5086 0-4.5421 2.0335-4.5421 4.5421s2.0335 4.5421 4.5421 4.5421h50.4482c2.5086 0 4.5421-2.0335 4.5421-4.5421s-2.0336-4.5421-4.5422-4.5421z" fill="#e7e3e6"/><path d="m93.7495 4.38672h-80.0345c-5.20691 0-9.42789 4.22098-9.42789 9.42778v48.9642c0 5.2069 4.22098 9.4279 9.42789 9.4279h80.0345c5.2068 0 9.4275-4.2211 9.4275-9.4279v-48.9642c0-5.2068-4.2207-9.42778-9.4275-9.42778z" fill="#e7e3e6"/><path d="m13.7156 60.7301c-2.6682 0-4.83889-2.1695-4.83889-4.8366v-42.0798c0-2.6671 2.17069-4.83665 4.83889-4.83665h80.0333c2.6682 0 4.8389 2.16955 4.8389 4.83665v42.0798c0 2.6671-2.1707 4.8366-4.8389 4.8366z" fill="#ffc966"/><path d="m187.122 71.501h-42.68v7.5974h42.68z" fill="#d2d2d2"/><path d="m191.006 78.1763h-50.448c-2.509 0-4.542 2.0335-4.542 4.5421s2.033 4.5421 4.542 4.5421h50.448c2.509 0 4.542-2.0335 4.542-4.5421s-2.033-4.5421-4.542-4.5421z" fill="#e7e3e6"/><path d="m205.799 4.38672h-80.034c-5.207 0-9.428 4.22098-9.428 9.42778v48.9642c0 5.2069 4.221 9.4279 9.428 9.4279h80.034c5.207 0 9.428-4.2211 9.428-9.4279v-48.9642c0-5.2068-4.221-9.42778-9.428-9.42778z" fill="#e7e3e6"/><path d="m125.765 60.7301c-2.668 0-4.838-2.1695-4.838-4.8366v-42.0798c0-2.6671 2.17-4.83665 4.838-4.83665h80.034c2.668 0 4.839 2.16955 4.839 4.83665v42.0798c0 2.6671-2.171 4.8366-4.839 4.8366z" fill="#53b1e2"/><path d="m75.0726 199.188h-42.6808v7.597h42.6808z" fill="#d2d2d2"/><path d="m78.9563 205.863h-50.4481c-2.5086 0-4.5421 2.033-4.5421 4.542 0 2.508 2.0335 4.542 4.5421 4.542h50.4482c2.5086 0 4.5421-2.034 4.5421-4.542 0-2.509-2.0336-4.542-4.5422-4.542z" fill="#e7e3e6"/><path d="m93.7495 132.073h-80.0345c-5.20691 0-9.42789 4.221-9.42789 9.428v48.964c0 5.207 4.22098 9.428 9.42789 9.428h80.0345c5.2068 0 9.4275-4.221 9.4275-9.428v-48.964c0-5.207-4.2207-9.428-9.4275-9.428z" fill="#e7e3e6"/><path d="m13.7156 188.417c-2.6682 0-4.83889-2.17-4.83889-4.837v-42.08c0-2.667 2.17069-4.836 4.83889-4.836h80.0333c2.6682 0 4.8389 2.169 4.8389 4.836v42.08c0 2.667-2.1707 4.837-4.8389 4.837z" fill="#85bd57"/><path d="m187.122 199.188h-42.68v7.597h42.68z" fill="#d2d2d2"/><path d="m191.006 205.863h-50.448c-2.509 0-4.542 2.033-4.542 4.542 0 2.508 2.033 4.542 4.542 4.542h50.448c2.509 0 4.542-2.034 4.542-4.542 0-2.509-2.033-4.542-4.542-4.542z" fill="#e7e3e6"/><path d="m205.799 132.073h-80.034c-5.207 0-9.428 4.221-9.428 9.428v48.964c0 5.207 4.221 9.428 9.428 9.428h80.034c5.207 0 9.428-4.221 9.428-9.428v-48.964c0-5.207-4.221-9.428-9.428-9.428z" fill="#e7e3e6"/><path d="m125.765 188.417c-2.668 0-4.838-2.17-4.838-4.837v-42.08c0-2.667 2.17-4.836 4.838-4.836h80.034c2.668 0 4.839 2.169 4.839 4.836v42.08c0 2.667-2.171 4.837-4.839 4.837z" fill="#ec6e62"/><path d="m165.35 50.603h-111.5658c-6.3626 0-11.5205 5.1579-11.5205 11.5205v20.0542c0 6.3626 5.1579 11.5206 11.5205 11.5206h111.5658c6.363 0 11.521-5.1579 11.521-11.5206v-20.0542c0-6.3626-5.158-11.5205-11.521-11.5205z" fill="#656766"/><path d="m62.9854 80.1593c4.423 0 8.0086-3.5856 8.0086-8.0086s-3.5856-8.0086-8.0086-8.0086-8.0086 3.5856-8.0086 8.0086 3.5856 8.0086 8.0086 8.0086z" fill="#ec6e62"/><path d="m84.2945 80.1593c4.423 0 8.0086-3.5856 8.0086-8.0086s-3.5856-8.0086-8.0086-8.0086-8.0086 3.5856-8.0086 8.0086 3.5856 8.0086 8.0086 8.0086z" fill="#85bd57"/><path d="m105.604 80.1593c4.423 0 8.008-3.5856 8.008-8.0086s-3.585-8.0086-8.008-8.0086-8.009 3.5856-8.009 8.0086 3.586 8.0086 8.009 8.0086z" fill="#53b1e2"/><path d="m165.35 106.887h-111.5658c-6.3626 0-11.5205 5.158-11.5205 11.52v20.054c0 6.363 5.1579 11.521 11.5205 11.521h111.5658c6.363 0 11.521-5.158 11.521-11.521v-20.054c0-6.362-5.158-11.52-11.521-11.52z" fill="#656766"/><path d="m62.9854 136.443c4.423 0 8.0086-3.586 8.0086-8.009s-3.5856-8.008-8.0086-8.008-8.0086 3.585-8.0086 8.008 3.5856 8.009 8.0086 8.009z" fill="#ec6e62"/><path d="m84.2945 136.443c4.423 0 8.0086-3.586 8.0086-8.009s-3.5856-8.008-8.0086-8.008-8.0086 3.585-8.0086 8.008 3.5856 8.009 8.0086 8.009z" fill="#85bd57"/><path d="m105.604 136.443c4.423 0 8.008-3.586 8.008-8.009s-3.585-8.008-8.008-8.008-8.009 3.585-8.009 8.008 3.586 8.009 8.009 8.009z" fill="#53b1e2"/><path d="m159.549 93.6982h-99.9638v13.1888h99.9638z" fill="#4e4c4d"/></svg>