<?xml version="1.0" encoding="utf-8"?>
<svg height="100%" viewBox="0 0 1024 1024" width="100%" xmlns="http://www.w3.org/2000/svg" xmlns:v="https://svgstorm.com">
<g fill="None" fill-opacity="0.0" stroke="#000000" stroke-opacity="0.00" stroke-width="0.3"><path d=" M 0 1024  L 1024 1024 L 1024 0 L 0 0 L 0 1024 M 449 836  C 446 836 441 837 437 837 C 412 837 386 836 362 837 C 289 766 218 692 145 621 C 148 516 144 410 147 305 C 167 307 187 304 207 306 C 216 306 229 306 238 306 C 255 304 273 306 290 305 C 290 279 290 253 290 227 C 290 201 292 174 288 150 C 394 150 499 150 605 150 C 613 161 624 170 633 180 C 643 189 653 199 663 208 C 672 218 682 228 692 237 C 701 247 711 256 721 266 C 730 276 740 286 750 296 C 760 306 770 315 779 325 C 789 335 800 342 809 353 C 818 365 834 370 833 387 C 832 404 833 428 833 446 C 833 464 833 485 833 504 C 833 523 833 543 833 562 C 833 581 833 601 833 620 C 833 639 833 660 833 679 C 779 679 725 679 671 679 C 672 733 670 784 672 835 C 647 838 627 836 602 837 C 577 838 548 836 522 836 C 495 836 474 838 449 836 Z"/>
</g>
<g fill="None" fill-opacity="0.0" stroke="#F45B34" stroke-opacity="0.99" stroke-width="0.3"><path d=" M 238 306  C 228 307 217 307 207 306 C 187 304 167 307 147 305 C 144 410 148 516 145 621 C 218 692 289 766 362 837 C 386 836 412 837 437 837 C 440 837 445 836 449 836 C 474 838 495 836 522 836 C 548 836 577 838 602 837 C 627 836 647 838 672 835 C 670 784 672 733 671 679 C 725 679 779 679 833 679 C 833 660 833 639 833 620 C 833 601 833 581 833 562 C 833 543 833 523 833 504 C 833 485 833 464 833 446 C 833 428 832 404 833 387 C 834 370 818 365 809 353 C 800 342 789 335 779 325 C 770 315 760 306 750 296 C 740 286 730 276 721 266 C 711 256 701 247 692 237 C 682 228 672 218 663 208 C 653 199 643 189 633 180 C 624 170 613 161 605 150 C 499 150 394 150 288 150 C 292 174 290 201 290 227 C 290 253 290 279 290 305 C 273 306 255 304 238 306 M 669 307  C 668 430 670 554 668 677 C 541 676 418 678 293 676 C 291 553 293 430 292 307 C 418 307 543 307 669 307 Z"/>
</g>
<g fill="None" fill-opacity="0.0" stroke="#FF6353" stroke-opacity="0.01" stroke-width="0.3"><path d=" M 207 306  C 217 307 228 307 238 306 C 229 306 216 306 207 306 Z"/>
</g>
<g fill="None" fill-opacity="0.0" stroke="#000000" stroke-opacity="0.00" stroke-width="0.3"><path d=" M 669 307  C 543 307 418 307 292 307 C 293 430 291 553 293 676 C 418 678 541 676 668 677 C 670 554 668 430 669 307 Z"/>
</g>
<g fill="None" fill-opacity="0.0" stroke="#FF7239" stroke-opacity="0.01" stroke-width="0.3"><path d=" M 437 837  C 441 837 446 836 449 836 C 445 836 440 837 437 837 Z"/>
</g>
<g fill="#000000" fill-opacity="0.00" stroke="None">
<path d=" M 0 1024  L 1024 1024 L 1024 0 L 0 0 L 0 1024 M 449 836  C 446 836 441 837 437 837 C 412 837 386 836 362 837 C 289 766 218 692 145 621 C 148 516 144 410 147 305 C 167 307 187 304 207 306 C 216 306 229 306 238 306 C 255 304 273 306 290 305 C 290 279 290 253 290 227 C 290 201 292 174 288 150 C 394 150 499 150 605 150 C 613 161 624 170 633 180 C 643 189 653 199 663 208 C 672 218 682 228 692 237 C 701 247 711 256 721 266 C 730 276 740 286 750 296 C 760 306 770 315 779 325 C 789 335 800 342 809 353 C 818 365 834 370 833 387 C 832 404 833 428 833 446 C 833 464 833 485 833 504 C 833 523 833 543 833 562 C 833 581 833 601 833 620 C 833 639 833 660 833 679 C 779 679 725 679 671 679 C 672 733 670 784 672 835 C 647 838 627 836 602 837 C 577 838 548 836 522 836 C 495 836 474 838 449 836 Z"/>
</g>
<g fill="#F45B34" fill-opacity="0.99" stroke="None">
<path d=" M 238 306  C 228 307 217 307 207 306 C 187 304 167 307 147 305 C 144 410 148 516 145 621 C 218 692 289 766 362 837 C 386 836 412 837 437 837 C 440 837 445 836 449 836 C 474 838 495 836 522 836 C 548 836 577 838 602 837 C 627 836 647 838 672 835 C 670 784 672 733 671 679 C 725 679 779 679 833 679 C 833 660 833 639 833 620 C 833 601 833 581 833 562 C 833 543 833 523 833 504 C 833 485 833 464 833 446 C 833 428 832 404 833 387 C 834 370 818 365 809 353 C 800 342 789 335 779 325 C 770 315 760 306 750 296 C 740 286 730 276 721 266 C 711 256 701 247 692 237 C 682 228 672 218 663 208 C 653 199 643 189 633 180 C 624 170 613 161 605 150 C 499 150 394 150 288 150 C 292 174 290 201 290 227 C 290 253 290 279 290 305 C 273 306 255 304 238 306 M 669 307  C 668 430 670 554 668 677 C 541 676 418 678 293 676 C 291 553 293 430 292 307 C 418 307 543 307 669 307 Z"/>
</g>
<g fill="#FF6353" fill-opacity="0.01" stroke="None">
<path d=" M 207 306  C 217 307 228 307 238 306 C 229 306 216 306 207 306 Z"/>
</g>
<g fill="#000000" fill-opacity="0.00" stroke="None">
<path d=" M 669 307  C 543 307 418 307 292 307 C 293 430 291 553 293 676 C 418 678 541 676 668 677 C 670 554 668 430 669 307 Z"/>
</g>
<g fill="#FF7239" fill-opacity="0.01" stroke="None">
<path d=" M 437 837  C 441 837 446 836 449 836 C 445 836 440 837 437 837 Z"/>
</g>
</svg>